<?xml version="1.0" encoding="UTF-8"?>
<svg id="Layer_2" xmlns="http://www.w3.org/2000/svg" viewBox="0 0 1158.33 2010.2">
  <defs>
    <style>
      .cls-1 {
        fill: none;
      }

      .cls-1, .cls-2, .cls-3 {
        stroke: #231f20;
        stroke-miterlimit: 10;
      }

      .cls-4, .cls-3 {
        fill: #231f20;
      }

      .cls-5, .cls-2 {
        fill: #fff;
      }
    </style>
  </defs>
  <g id="Layer_1-2" data-name="Layer_1">
    <g>
      <rect class="cls-3" x=".5" y=".5" width="1157.33" height="2009.2"/>
      <ellipse class="cls-2" cx="536.46" cy="323.42" rx="120.61" ry="102.27"/>
      <path class="cls-5" d="M445.81,238.58c-59.92.87-60.78,1.58-61.83,51.16-1.06-49.57-1.91-50.28-61.83-51.16,59.92-.87,60.78-1.58,61.83-51.16,1.06,49.57,1.91,50.28,61.83,51.16Z"/>
      <g>
        <path class="cls-4" d="M537.29,323.42c-88.8,1.23-90.07,2.23-91.64,72.06-1.57-69.84-2.83-70.83-91.64-72.06,88.8-1.23,90.07-2.23,91.64-72.06,1.57,69.84,2.83,70.83,91.64,72.06Z"/>
        <path class="cls-1" d="M537.29,323.42c-88.8,1.23-90.07,2.23-91.64,72.06-1.57-69.84-2.83-70.83-91.64-72.06,88.8-1.23,90.07-2.23,91.64-72.06,1.57,69.84,2.83,70.83,91.64,72.06Z"/>
      </g>
    </g>
  </g>
</svg>