<?xml version="1.0" standalone="no"?>
<!DOCTYPE svg PUBLIC "-//W3C//DTD SVG 20010904//EN"
 "http://www.w3.org/TR/2001/REC-SVG-20010904/DTD/svg10.dtd">
<svg version="1.0" xmlns="http://www.w3.org/2000/svg"
 width="288.000000pt" height="288.000000pt" viewBox="0 0 288.000000 288.000000"
 preserveAspectRatio="xMidYMid meet">

<g transform="translate(0.000000,288.000000) scale(0.100000,-0.100000)"
fill="#000000" stroke="none">
<path d="M0 1440 l0 -1440 1440 0 1440 0 0 1440 0 1440 -1440 0 -1440 0 0
-1440z m1771 693 c-49 -87 -88 -159 -87 -161 2 -1 20 5 42 14 48 21 155 23
208 5 l40 -14 -44 -16 c-105 -39 -123 -180 -30 -235 40 -23 111 -21 144 5 31
24 56 69 56 101 l1 23 14 -25 c43 -76 39 -201 -11 -287 -32 -56 -105 -118
-161 -137 -61 -21 -157 -20 -219 1 -69 23 -155 110 -178 181 -27 82 -23 174
12 242 22 43 186 313 280 460 8 14 17 19 19 13 3 -7 -36 -83 -86 -170z m-558
-147 c28 -13 29 -14 9 -15 -75 -3 -132 -63 -132 -140 0 -37 6 -49 39 -82 35
-35 44 -39 90 -39 44 0 56 5 89 34 34 32 37 39 37 89 0 30 2 54 5 52 3 -2 17
-25 30 -52 21 -40 25 -62 25 -138 0 -81 -3 -95 -29 -143 -36 -65 -83 -107
-154 -140 -75 -34 -184 -30 -261 11 -30 15 -55 26 -56 25 -9 -12 -133 -228
-131 -228 1 0 30 14 63 30 148 74 356 91 488 40 80 -31 155 -106 181 -180 28
-81 26 -210 -4 -272 -46 -93 -134 -149 -271 -174 -98 -17 -160 -17 -246 1 -78
16 -193 69 -202 92 -11 29 12 33 49 8 134 -91 361 -100 517 -20 137 69 184
205 97 281 -60 52 -131 69 -286 69 -112 0 -147 -4 -205 -22 -72 -23 -167 -78
-218 -128 -16 -15 -30 -25 -31 -24 -5 6 -26 171 -26 201 0 16 40 93 101 193
l100 168 -20 21 c-40 42 -65 117 -66 191 0 76 13 116 57 182 74 110 243 160
361 109z"/>
</g>
</svg>
